<?xml version="1.0" standalone="no"?><!DOCTYPE svg PUBLIC "-//W3C//DTD SVG 1.1//EN" "http://www.w3.org/Graphics/SVG/1.1/DTD/svg11.dtd"><svg t="1766924012634" class="icon" viewBox="0 0 1024 1024" version="1.1" xmlns="http://www.w3.org/2000/svg" p-id="27560" xmlns:xlink="http://www.w3.org/1999/xlink" width="200" height="200"><path d="M713.4208 76.8h-375.808a25.6 25.6 0 0 0-24.4736 18.2272L154.624 623.616l-0.8704 4.096a25.6 25.6 0 0 0 25.3952 28.8768l175.9232-0.0512-68.7616 278.0672c-6.2976 25.4464 25.1904 42.8032 43.3152 23.9104l516.096-537.6 2.816-3.4304a25.6 25.6 0 0 0-21.248-39.936H620.032l116.8384-264.7552a25.6 25.6 0 0 0-23.4496-35.9424z m-39.3216 51.2l-116.736 264.7552-1.3824 3.9424a25.6 25.6 0 0 0 24.832 32h186.4704l-408.2688 425.216 53.6576-216.832 0.7168-4.4032a25.6 25.6 0 0 0-25.6-27.3408l-174.2336-0.0512L356.6592 128h317.44z" fill="#979797" p-id="27561"></path><path d="M449.6896 236.4416a25.6 25.6 0 0 1 49.0496 13.824l-1.28 4.5056-81.8176 213.504a25.6 25.6 0 0 1-49.1008-13.824l1.28-4.5056 81.8688-213.504z" fill="#979797" p-id="27562"></path></svg>