<?xml version="1.0" standalone="no"?><!DOCTYPE svg PUBLIC "-//W3C//DTD SVG 1.1//EN" "http://www.w3.org/Graphics/SVG/1.1/DTD/svg11.dtd"><svg t="1766923828386" class="icon" viewBox="0 0 1024 1024" version="1.1" xmlns="http://www.w3.org/2000/svg" p-id="13332" xmlns:xlink="http://www.w3.org/1999/xlink" width="200" height="200"><path d="M512 0a512 512 0 1 0 512 512 512 512 0 0 0-512-512zM306.631111 300.373333a52.906667 52.906667 0 0 1 75.093333 0l44.942223 44.942223a53.475556 53.475556 0 0 1 0 75.662222 52.337778 52.337778 0 0 1-75.093334 0l-44.373333-44.942222a53.475556 53.475556 0 0 1-0.568889-75.662223z m417.564445 419.84a56.888889 56.888889 0 0 1-75.662223 0L512 584.817778l-136.533333 138.808889a52.906667 52.906667 0 0 1-75.093334 0 56.888889 56.888889 0 0 1 0-75.662223l341.333334-341.333333a52.337778 52.337778 0 0 1 75.093333 0 53.475556 53.475556 0 0 1 0 75.662222l-125.155556 126.293334 134.826667 135.395555a56.888889 56.888889 0 0 1-2.275555 76.231111z" fill="#FE7854" p-id="13333"></path></svg>